<?xml version="1.0" standalone="no"?>
<!DOCTYPE svg PUBLIC "-//W3C//DTD SVG 20010904//EN"
 "http://www.w3.org/TR/2001/REC-SVG-20010904/DTD/svg10.dtd">
<svg version="1.0" xmlns="http://www.w3.org/2000/svg"
 width="229.000000pt" height="229.000000pt" viewBox="0 0 229.000000 229.000000"
 preserveAspectRatio="xMidYMid meet">
<metadata>
Created by potrace 1.14, written by Peter Selinger 2001-2017
</metadata>
<g transform="translate(0.000000,229.000000) scale(0.100000,-0.100000)"
fill="#000000" stroke="none">
<path d="M1061 2194 c-167 -44 -339 -138 -422 -232 -49 -55 -95 -147 -108
-218 -6 -28 -13 -98 -16 -155 -9 -164 -9 -162 -60 -187 -59 -29 -132 -96 -157
-146 -31 -61 -35 -150 -10 -233 36 -116 117 -187 225 -196 26 -2 49 -6 51 -8
2 -2 -2 -69 -10 -149 -7 -80 -13 -179 -14 -221 0 -49 -4 -80 -12 -86 -7 -5
-49 -22 -93 -38 -104 -37 -231 -95 -306 -141 -57 -34 -70 -36 -111 -19 -16 6
-18 -1 -18 -79 l0 -86 124 0 124 0 64 39 c67 40 203 111 214 111 8 0 -2 -108
-12 -133 -5 -15 3 -17 65 -17 39 0 72 1 73 3 0 1 4 137 7 301 l6 299 69 -104
c183 -276 292 -400 389 -444 85 -39 200 -59 263 -46 74 14 192 71 262 124 68
53 168 158 177 187 9 30 38 27 154 -15 9 -4 -6 -26 -48 -70 -61 -63 -103 -137
-115 -202 l-5 -33 74 0 c61 0 75 3 75 15 0 24 37 91 73 131 42 49 129 105 200
129 l57 19 0 68 c0 37 -2 68 -5 68 -2 0 -34 -12 -69 -27 l-65 -26 -68 31 c-37
17 -97 41 -133 54 l-65 23 -6 140 c-13 275 -10 494 5 518 16 24 66 250 66 296
0 25 -5 30 -35 35 l-35 7 0 58 c0 49 4 61 26 82 25 23 26 28 22 100 -8 138
-93 274 -233 374 -117 84 -208 108 -239 64 l-14 -21 -34 26 c-84 63 -187 73
-347 30z m398 -340 c51 -135 133 -218 240 -245 63 -16 66 -18 69 -49 2 -18 1
-43 -2 -56 -6 -22 -11 -24 -71 -24 -52 0 -65 3 -65 16 0 22 -83 56 -127 52
-32 -3 -38 -8 -48 -38 -12 -33 -14 -35 -56 -33 -24 0 -78 7 -119 15 -73 13
-75 15 -86 48 l-12 35 -93 0 c-89 0 -94 -1 -97 -22 -3 -21 -6 -22 -90 -16 -48
3 -89 7 -91 9 -4 3 16 151 26 191 5 21 9 21 226 25 185 3 227 6 253 20 36 20
89 78 99 107 10 33 21 25 44 -35z m-443 -414 c183 -15 184 -15 184 -55 0 -19
-12 -66 -26 -105 -23 -62 -32 -73 -67 -91 -23 -13 -68 -23 -111 -26 -61 -5
-74 -3 -96 15 -50 41 -21 174 43 196 35 13 43 3 23 -26 -41 -58 0 -118 82
-118 57 0 82 21 82 67 0 73 -45 103 -155 103 -53 0 -69 -4 -86 -21 -50 -50
-74 -159 -49 -223 22 -60 98 -78 226 -54 76 14 122 48 152 111 18 38 26 45 59
50 76 13 82 11 89 -34 4 -23 22 -64 40 -91 19 -28 34 -54 34 -59 0 -6 -11 -21
-25 -34 -20 -21 -33 -25 -87 -25 -58 0 -147 17 -190 35 -15 6 -18 2 -18 -19 0
-14 9 -35 19 -45 38 -38 209 -55 276 -27 36 15 75 67 75 100 0 16 5 17 33 12
110 -22 158 -18 228 21 3 2 9 -121 13 -274 6 -237 4 -287 -9 -337 -45 -168
-199 -328 -359 -371 -112 -30 -212 2 -317 102 -89 85 -320 401 -349 479 -7 18
-9 66 -4 131 6 90 9 103 25 103 24 0 34 -19 15 -26 -37 -14 -5 -112 61 -184
40 -45 85 -70 127 -70 19 0 27 -7 32 -25 6 -24 8 -25 103 -25 92 -1 200 -16
396 -58 79 -17 90 -22 93 -42 3 -21 1 -22 -30 -16 -201 41 -340 29 -437 -38
-37 -26 -70 -71 -59 -81 3 -3 28 8 55 25 31 19 80 37 130 47 72 15 94 16 195
4 62 -7 134 -15 159 -18 l46 -5 6 43 c4 24 7 120 8 214 1 135 -1 171 -12 176
-8 4 -97 14 -199 23 -102 9 -230 23 -285 31 -113 17 -395 83 -409 96 -5 4 0
85 13 191 34 287 25 258 80 258 27 0 106 -5 177 -10z m747 -79 c13 -13 -7
-112 -33 -167 -26 -53 -61 -69 -139 -61 -111 10 -151 51 -151 156 0 100 -9 95
163 88 83 -4 155 -11 160 -16z m-679 -46 c9 -25 -12 -64 -38 -71 -41 -10 -94
30 -82 62 6 16 8 16 24 0 26 -23 63 -21 69 4 6 24 19 26 27 5z m349 -517 c70
-6 126 -16 124 -21 -1 -5 -27 -22 -57 -39 -30 -16 -61 -35 -68 -40 -8 -7 -31
-5 -75 7 -54 15 -87 17 -257 10 -187 -6 -196 -6 -213 13 -25 27 -15 32 123 58
133 26 244 29 423 12z m147 -148 c0 -55 -3 -70 -15 -70 -28 0 -210 42 -220 51
-5 5 38 9 103 9 111 0 134 8 90 31 l-21 11 24 19 c13 10 27 19 32 19 4 0 7
-31 7 -70z"/>
<path d="M1560 1353 c-46 -17 -75 -76 -52 -109 31 -45 103 -57 146 -23 30 23
33 56 11 98 -19 38 -59 51 -105 34z m76 -57 c8 -32 -11 -64 -42 -72 -20 -5
-32 -1 -51 18 -22 23 -24 28 -12 49 l13 24 6 -25 c4 -18 14 -26 33 -28 24 -3
27 0 27 27 0 37 17 41 26 7z"/>
<path d="M807 213 c-11 -10 -7 -93 7 -153 l12 -55 42 -3 c50 -4 51 0 21 102
-29 100 -56 136 -82 109z"/>
<path d="M1734 162 c-12 -9 -47 -48 -80 -87 l-58 -70 28 -3 c22 -3 38 5 69 35
38 37 97 118 97 135 0 14 -34 8 -56 -10z"/>
</g>
</svg>
